# xmcd
# 
# Track frame offsets:
#     150
#     23765
#     45315
#     65463
#     86808
#     110115
#     130998
#     145048
#     165298
#     188205
# 
# Disc length: 2771
# 
# Revision: 0
# Processed by: cddbd v1.5.2PL0 Copyright (c) Steve Scherf et al.
# Submitted via: BonkEnc v1.0.5
# 
DISCID=810ad10a
DTITLE=夏川りみ - RIMITs〜ベスト・デュエット・ソングス〜
DYEAR=2006
DGENRE=misc
TTITLE0=愛よ 愛よ〜子守唄バージョン〜
TTITLE1=童神〜太陽・月バージョン〜
TTITLE2=満天の星の夜
TTITLE3=道しるべ〜かりゆしバージョン〜
TTITLE4=イラヨイ月夜浜〜掛唄バージョン〜
TTITLE5=微笑みにして〜RiMidori Ver.〜
TTITLE6=僕の胸でおやすみ
TTITLE7=あなたの風〜オモトタケミバージョン〜
TTITLE8=ファムレウタ(子守唄)〜ピノアンタバージョン〜
TTITLE9=涙そうそう〜スペシャル・ライブ・ヴァージョン〜
EXTD=
EXTT0=
EXTT1=
EXTT2=
EXTT3=
EXTT4=
EXTT5=
EXTT6=
EXTT7=
EXTT8=
EXTT9=
PLAYORDER=
